<?xml version="1.0" encoding="UTF-8"?>
<svg id="Ebene_2" data-name="Ebene 2" xmlns="http://www.w3.org/2000/svg" xmlns:xlink="http://www.w3.org/1999/xlink" viewBox="0 0 254.44 241.99">
  <defs>
    <style>
      .cls-1 {
        fill: url(#Unbenannter_Verlauf_76);
      }
    </style>
    <linearGradient id="Unbenannter_Verlauf_76" data-name="Unbenannter Verlauf 76" x1="49.86" y1="28.33" x2="209.56" y2="217.96" gradientUnits="userSpaceOnUse">
      <stop offset=".04" stop-color="#a7d5bf"/>
      <stop offset=".39" stop-color="#72c1a8"/>
      <stop offset="1" stop-color="#00474b"/>
    </linearGradient>
  </defs>
  <g id="Ebene_1-2" data-name="Ebene 1">
    <g id="Ebene_2-2" data-name="Ebene 2">
      <path class="cls-1" d="M164.72,181.81v60.18s-28.99,0-28.99,0v-33.14h-17.03v33.14s-28.99,0-28.99,0v-60.18s37.5-25.05,37.5-25.05l37.5,25.05ZM245.48,149.88l8.96-27.57-57.23-18.6-35.42,27.93,12.24,43.41,57.23,18.6,8.96-27.57-31.52-10.24,5.26-16.2,31.52,10.24ZM193.65,92.77l35.37-48.68-23.45-17.04-19.48,26.81-13.78-10.01,19.48-26.81L168.34,0l-35.37,48.68,15.62,42.31,45.07,1.78ZM105.85,90.99l15.62-42.31L86.1,0l-23.45,17.04,19.48,26.81-13.78,10.01-19.48-26.81-23.45,17.04,35.37,48.68,45.07-1.78ZM57.23,103.71L0,122.31l8.96,27.57,31.52-10.24,5.26,16.2-31.52,10.24,8.96,27.57,57.23-18.6,12.24-43.41-35.42-27.93Z"/>
    </g>
  </g>
</svg>